<svg xmlns="http://www.w3.org/2000/svg" width="620px" height="620px" viewBox="0 0 236 236">
  <g>
    <path 
      fill="#3B82F6"
      d="M114 46c-8,2 -14,10 -14,18 0,5 3,11 7,14l2 1 0 11 0 10 -10 0c-11,0 -14,0 -19,1 -19,5 -32,21 -34,40 -2,24 16,46 40,48 4,1 60,1 64,0 16,-1 30,-12 36,-27 11,-26 -4,-54 -30,-61 -5,-1 -8,-1 -19,-1l-10 0 0 -10 0 -11 2 -1c4,-3 7,-9 7,-14 0,-1 0,-3 -1,-4 -2,-9 -11,-16 -21,-14zm-25 90c-2,0 -4,2 -5,3 -1,2 -2,3 -2,6 0,2 0,2 1,4 1,3 4,5 8,5 2,0 2,0 4,-1 3,-2 5,-4 5,-8 0,-4 -2,-6 -5,-8 -2,-1 -5,-1 -6,-1zm54 0c-2,0 -4,2 -5,3 -1,2 -2,3 -2,6 0,2 0,2 1,4 1,3 4,5 8,5 2,0 2,0 4,-1 3,-2 5,-4 5,-8 0,-4 -2,-6 -5,-8 -2,-1 -5,-1 -6,-1zm6 -18c6,1 11,4 15,8 4,4 6,9 7,14 1,5 1,10 -1,14 -2,7 -9,14 -16,16 -5,2 -4,2 -36,2 -32,0 -32,0 -37,-2 -7,-2 -13,-9 -15,-16 -6,-15 3,-32 20,-36 2,0 4,0 31,0 26,0 30,0 32,0zm-31 -118c-65,0 -118,53 -118,118 0,65 53,118 118,118 65,0 118,-53 118,-118 0,-65 -53,-118 -118,-118zm9 83c12,-1 24,-3 36,-7 2,9 3,19 4,29 8,5 15,12 19,21l34 0c-2,19 -9,37 -19,52 -6,-4 -11,-7 -17,-10 -7,11 -18,19 -31,21 -7,15 -17,26 -27,30l0 -29c-5,0 -11,0 -16,0l0 29c-10,-4 -20,-15 -27,-30 -13,-2 -24,-10 -31,-21 -6,3 -12,6 -17,10 -11,-15 -17,-33 -19,-52l34 0c4,-9 11,-16 19,-21 1,-10 2,-20 4,-29 11,4 24,6 36,7l0 -4 -2 -1c-4,-3 -6,-7 -7,-12 -8,-1 -15,-3 -23,-5 8,-23 20,-39 33,-44l0 31c1,-1 3,-1 4,-2 4,-1 8,0 12,2l0 -31c13,5 25,21 32,44 -7,2 -14,4 -22,5 -1,5 -4,9 -7,12l-2 1 0 4zm-74 27l-37 0c2,-19 8,-37 19,-52 7,5 15,9 23,13 -3,12 -4,25 -5,39zm130 0c-1,-14 -3,-27 -5,-39 8,-4 16,-8 23,-13 10,15 17,33 19,52l-37 0zm7 -64c-5,4 -11,7 -17,10 -4,-13 -9,-24 -16,-32 13,5 24,12 33,22zm-112 -22c-6,8 -11,19 -16,32 -6,-3 -11,-6 -17,-10 10,-10 21,-17 33,-22zm-33 166c6,-4 11,-7 17,-10 5,13 10,23 16,32 -12,-5 -23,-13 -33,-22zm112 22c7,-9 12,-19 16,-32 6,3 12,6 17,10 -9,9 -20,17 -33,22z"
    />
  </g>
</svg>